<svg width="404.2425048828125px" height="100.96249999999999px" xmlns="http://www.w3.org/2000/svg" viewBox="47.878747558593744 24.518750000000004 404.2425048828125 100.96249999999999" style="background: rgba(0, 0, 0, 0); --noir-inline-background-image: none; --noir-inline-background-color: rgba(0, 0, 0, 0);" data-noir-inline-background-image="" data-noir-inline-background-color="" preserveAspectRatio="xMidYMid"><defs><filter id="editing-hole" x="-100%" y="-100%" width="300%" height="300%"><feFlood flood-color="#000" result="black"></feFlood><feMorphology operator="dilate" radius="2" in="SourceGraphic" result="erode"></feMorphology><feGaussianBlur in="erode" stdDeviation="4" result="blur"></feGaussianBlur><feOffset in="blur" dx="2" dy="2" result="offset"></feOffset><feComposite operator="atop" in="offset" in2="black" result="merge"></feComposite><feComposite operator="in" in="merge" in2="SourceGraphic" result="inner-shadow"></feComposite></filter></defs><g filter="url(#editing-hole)"><g transform="translate(107.14000415802002, 97.40500068664551)"><path d="M33.91-19.19L12.16-19.19L12.16-19.19Q10.84-19.19 9.67-19.70L9.67-19.70L9.67-19.70Q8.50-20.22 7.63-21.08L7.63-21.08L7.63-21.08Q6.75-21.94 6.25-23.11L6.25-23.11L6.25-23.11Q5.75-24.28 5.75-25.59L5.75-25.59L5.75-38.41L5.75-38.41Q5.75-39.72 6.25-40.89L6.25-40.89L6.25-40.89Q6.75-42.06 7.63-42.92L7.63-42.92L7.63-42.92Q8.50-43.78 9.67-44.30L9.67-44.30L9.67-44.30Q10.84-44.81 12.16-44.81L12.16-44.81L33.91-44.81L33.91-44.81Q35.22-44.81 36.39-44.30L36.39-44.30L36.39-44.30Q37.56-43.78 38.44-42.92L38.44-42.92L38.44-42.92Q39.31-42.06 39.81-40.89L39.81-40.89L39.81-40.89Q40.31-39.72 40.31-38.41L40.31-38.41L40.31-32.63L33.91-32.63L33.91-38.41L12.16-38.41L12.16-25.59L33.91-25.59L33.91-25.59Q35.22-25.59 36.39-25.09L36.39-25.09L36.39-25.09Q37.56-24.59 38.44-23.72L38.44-23.72L38.44-23.72Q39.31-22.84 39.81-21.67L39.81-21.67L39.81-21.67Q40.31-20.50 40.31-19.19L40.31-19.19L40.31-6.41L40.31-6.41Q40.31-5.09 39.81-3.92L39.81-3.92L39.81-3.92Q39.31-2.75 38.44-1.88L38.44-1.88L38.44-1.88Q37.56-1 36.39-0.50L36.39-0.50L36.39-0.50Q35.22 0 33.91 0L33.91 0L11.53 0L11.53 0Q10.22 0 9.05-0.50L9.05-0.50L9.05-0.50Q7.88-1 7-1.88L7-1.88L7-1.88Q6.13-2.75 5.63-3.92L5.63-3.92L5.63-3.92Q5.13-5.09 5.13-6.41L5.13-6.41L5.13-12.16L11.53-12.16L11.53-6.41L33.91-6.41L33.91-19.19ZM51.84-44.81L58.25-44.81L58.25-25.47L79.63-44.81L88.66-44.81L64.41-22.84L89.63 0L80.59 0L58.25-20.16L58.25 0L51.84 0L51.84-44.81ZM90.97-44.81L98.41-44.81L111.44-23.88L124.50-44.81L131.94-44.81L114.66-17.78L114.66 0L108.25 0L108.25-17.78L90.97-44.81ZM145.38 0L138.97 0L138.97-44.81L163.50-44.81L163.50-44.81Q174.38-44.81 174.38-33.91L174.38-33.91L174.38-27.53L174.38-27.53Q174.38-16.63 163.50-16.63L163.50-16.63L145.38-16.63L145.38 0ZM145.38-38.41L145.38-23.03L163.16-23.03L163.16-23.03Q165.72-23.03 166.84-24.16L166.84-24.16L166.84-24.16Q167.97-25.28 167.97-27.84L167.97-27.84L167.97-33.59L167.97-33.59Q167.97-36.16 166.84-37.28L166.84-37.28L166.84-37.28Q165.72-38.41 163.16-38.41L163.16-38.41L145.38-38.41ZM183.31 0L183.31-44.81L215.97-44.81L215.97-38.41L189.72-38.41L189.72-25.59L212.13-25.59L212.13-19.19L189.72-19.19L189.72-6.41L215.97-6.41L215.97 0L183.31 0ZM225.56-44.81L231.97-44.81L231.97 0L225.56 0L225.56-44.81ZM256.91-44.81L263.31-44.81L280.59 0L274.19 0L270.22-10.31L250-10.31L246.03 0L239.63 0L256.91-44.81ZM260.13-36.47L252.44-16.72L267.75-16.72L260.13-36.47Z" fill="#ccc" style="--noir-inline-fill: #98a1b1;" data-noir-inline-fill=""></path></g></g><style>text {
  font-size: 64px;
  font-family: Arial Black;
  dominant-baseline: central;
  text-anchor: middle;
}</style><style class="noir noir-dynamic" media="screen"></style></svg>